<svg xmlns="http://www.w3.org/2000/svg" fill="none" viewBox="0 0 512 512">
	<rect fill="#f6f2e9" width="512" height="512" />
	<path fill="#000" stroke-width="2.2708" d="m44.111 139.16v266.82c18.747 12.644 52.754 22.235 83.273 22.235 63.218 0 120.33-45.779 120.33-112.92 0-52.318-32.699-93.737-83.709-93.737-25.723 0-46.651 13.516-61.474 27.903h-6.9758v-165.67l-91.557 29.647zm51.446 126c4.7959-6.1038 16.567-12.208 29.647-12.208 40.547 0 69.758 29.211 69.758 80.221 0 50.574-27.031 76.298-59.294 76.298-18.747 0-33.571-9.5917-40.111-23.543zm200.12 139.08h-27.467v19.619h105.94v-19.619h-27.031v-90.249l94.173 109.87h66.706l-110.3-120.77 73.246-57.55h26.159v-19.619h-100.28v19.619h37.059v4.3599l-71.938 57.986h-14.824v-224.1l-91.993 29.647 40.547 25.723z" />
	<style>
		@media (prefers-color-scheme: dark) {
			rect { fill: #f6f2e9; }
			path { fill: #000; }
		}
		@media (prefers-color-scheme: light) {
			rect { fill: #000; }
			path { fill: #efefef; }
		}
		@media (prefers-color-scheme: no-preference) {
			rect { fill: #000; }
			path { fill: #efefef; }
		}
	</style>
</svg>
